<svg class='hypercontext-logo' xmlns="http://www.w3.org/2000/svg" xmlns:v="https://vecta.io/nano" viewBox="218.77 362.23 962.46 175.56" title="Hypercontext" width="275">
    <path d="M443.23 411.16h19.92v30.78h31.21v-30.78h19.86v78.32h-19.86V458h-31.21v31.53h-19.92zM528 507.94V494a32.05 32.05 0 0 0 6.51.6c4.07 0 6.3-1.25 7.27-3.86l.44-1.25-20.36-59.1h21.28l10.58 44.67h.49l10.53-44.67h20.3l-18.83 58.83c-4.83 15.31-14.17 19.54-28.55 19.54a60 60 0 0 1-9.66-.82zm63.34-77.56h19.27v10.53h.44c3-7.39 9.28-11.78 17.69-11.78 14.93 0 23.61 11.23 23.61 30.77v.1c0 19.43-8.63 30.77-23.39 30.77-8.52 0-15-4.29-18-11.4h-.38v29.15h-19.24zM632.81 460v-.06c0-9.44-4.34-15.09-11.13-15.09S610.5 450.51 610.5 460h0c0 9.34 4.45 15.09 11.18 15.09s11.13-5.8 11.13-15.09zm27.08 0v-.06c0-19 11.4-30.77 29.37-30.77s29.2 11.67 29.2 29.58v5.64h-39.73c.21 8 4.55 12.71 11.56 12.71 6.19 0 9.55-3.53 10.42-6v-.27h17.37l-.16.65c-1.79 8.2-9.23 19.27-28.06 19.27-18.62-.02-29.97-11.69-29.97-30.75zm19.11-7h21.33c-1-6.62-5-10.2-10.64-10.2S680 446.5 679 453zm48.68-22.62H747v10.47h.38c1.63-7.49 6.29-11.72 13.24-11.72a15.7 15.7 0 0 1 5 .76v16.44a17.18 17.18 0 0 0-6.13-1.08c-8.09 0-12.48 4.45-12.48 12.86v31.37h-19.33zm42.22 29.52h0c0-19.05 11.51-30.72 29.91-30.72 16.66 0 27.62 10 27.89 24l.06.38h-17.7v-.54c-.76-5.48-4.23-9.28-9.88-9.28-6.68 0-10.69 5.91-10.69 16.17v.09c0 10.42 3.91 16.17 10.74 16.17 5.65 0 9.07-3.63 9.83-9.28l.11-.54h17.64v.38c-.38 13.73-10.75 24-27.79 24-18.67 0-30.12-11.67-30.12-30.83zm64.91.1v-.11c0-19.16 11.89-30.72 30.23-30.72s30.23 11.45 30.23 30.72v.11c0 19.54-11.61 30.77-30.23 30.77s-30.23-11.33-30.23-30.77zm41 0v-.11c0-10.21-4.23-16.12-10.75-16.12s-10.69 5.91-10.69 16.12v.11c0 10.42 4.07 16.17 10.75 16.17s10.67-5.84 10.67-16.17zm28.69-29.62h19.26v10.42h.38c2.93-7.44 9-11.67 18-11.67 13 0 20.3 8.3 20.3 22.31v38H943.2v-33.88c0-6.78-3.21-10.75-9.5-10.75s-9.94 4.56-9.94 11.13v33.54H904.5zm73.5 41.84v-27.73h-8v-14.11h8v-13.63h19.27v13.63h10.58v14.11h-10.54v25.13c0 5.1 2.28 7 7 7a22.26 22.26 0 0 0 3.58-.27V490a50.62 50.62 0 0 1-9 .7c-14.34.03-20.89-5.12-20.89-18.48zm37.48-12.22v-.06c0-19 11.4-30.77 29.37-30.77s29.2 11.67 29.2 29.58v5.64h-39.73c.21 8 4.55 12.71 11.56 12.71 6.18 0 9.55-3.53 10.42-6v-.27h17.37l-.16.65c-1.79 8.2-9.23 19.27-28.06 19.27-18.62-.02-29.97-11.69-29.97-30.75zm19.11-6.95h21.33c-1-6.62-5-10.2-10.64-10.2s-9.72 3.65-10.69 10.15zm61.98 7.07l-17.64-29.74h21.71l8.79 18.89h.38l8.74-18.89h20.73l-17.69 29.31 17.64 29.79h-20.79l-9.72-19.48h-.38l-9.55 19.48h-19.92zm54.81 12.1v-27.73h-8v-14.11h8v-13.63h19.27v13.63h10.58v14.11h-10.58v25.13c0 5.1 2.28 7 7 7a22.16 22.16 0 0 0 3.58-.27V490a50.53 50.53 0 0 1-9 .7c-14.34.03-20.85-5.12-20.85-18.48zm-897.59-89.77c-9.67 2.38-15.45 7.63-17.51 20.22-2.07-12.59-7.84-17.84-17.51-20.22 9.67-2.38 15.44-7.63 17.51-20.22 2.06 12.59 7.84 17.84 17.51 20.22zm135.69 76.7a22.32 22.32 0 0 1-24.43 20 22.06 22.06 0 0 1-14.72-7.91l-8.48 15h-40l11.68 19.24h53.91c-19.63 2.84-35.83 15.41-42.85 32.31a81.74 81.74 0 1 1 62.83-138 61.39 61.39 0 0 0-27.57-6.35c-19.71 0-37.12 8.7-47.61 22l33.56 29.8a21.21 21.21 0 0 0 2.33 22.55l.2.24c.18.23.36.45.55.66l.26.28.55.59.27.26.6.56a20.63 20.63 0 0 0 11.74 5.23 21.09 21.09 0 0 0 9.58-40.67 22.34 22.34 0 0 1 17.6 24.21zm-73.42-29.93l-4.29-3.79a47.52 47.52 0 0 0-10.62 29.73 46.73 46.73 0 0 0 6.1 23h5.18c-10.81-25.63-1.1-42.72 3.63-48.94zm21.14 24.06c-6.12-1.51-9.78-4.83-11.08-12.79-1.31 8-5 11.28-11.08 12.79 6.12 1.51 9.77 4.82 11.08 12.79 1.3-7.97 4.96-11.28 11.08-12.79zm28.39-19.68l-32.42-21.7 25.22 22.61a20.82 20.82 0 0 1 7.2-.91zm2.52 10.24a11.5 11.5 0 0 1 5.8 2.31 12.49 12.49 0 0 0-8.05-4.15 12.71 12.71 0 0 0-2.64 25.28 12.51 12.51 0 0 0 3-.06h-.55a11.74 11.74 0 0 1 2.44-23.35z"></path>
</svg>
