<?xml version="1.0" encoding="utf-8"?>
<!-- Generator: Adobe Illustrator 17.0.2, SVG Export Plug-In . SVG Version: 6.00 Build 0)  -->
<!DOCTYPE svg PUBLIC "-//W3C//DTD SVG 1.1//EN" "http://www.w3.org/Graphics/SVG/1.1/DTD/svg11.dtd">
<svg version="1.1" id="Layer_1" xmlns="http://www.w3.org/2000/svg" xmlns:xlink="http://www.w3.org/1999/xlink" x="0px" y="0px"
	 width="640px" height="400px" viewBox="0 0 640 400" enable-background="new 0 0 640 400" xml:space="preserve">
<g opacity="0.5">
	<g>
		<g enable-background="new    ">
			<g enable-background="new    ">
				<defs>
					<path id="SVGID_1_" enable-background="new    " d="M507.142,81.705l-2.884,30.716c0.159-1.69-0.052-3.399-0.623-5.091
						c-0.569-1.686-1.495-3.354-2.769-4.969c-1.27-1.609-2.885-3.166-4.838-4.635c-1.946-1.464-4.228-2.841-6.838-4.096
						c-4.296-2.066-9.082-3.61-14.061-4.637c-4.968-1.025-10.141-1.537-15.226-1.539c-5.084-0.002-10.092,0.507-14.729,1.529
						c-4.648,1.024-8.935,2.566-12.562,4.63l1.759-30.367c3.677-2.024,8.024-3.535,12.738-4.539c4.704-1.001,9.784-1.5,14.944-1.498
						c5.159,0.002,10.41,0.505,15.455,1.51c5.056,1.008,9.917,2.522,14.283,4.549c2.652,1.231,4.972,2.582,6.952,4.018
						c1.986,1.441,3.631,2.968,4.924,4.547c1.298,1.585,2.244,3.222,2.826,4.875C507.078,78.37,507.298,80.047,507.142,81.705z"/>
				</defs>
				<clipPath id="SVGID_2_">
					<use xlink:href="#SVGID_1_"  overflow="visible"/>
				</clipPath>
				<g clip-path="url(#SVGID_2_)" enable-background="new    ">
					<path fill="#858585" d="M507.142,81.705l-2.884,30.716c0.159-1.69-0.052-3.399-0.623-5.091
						c-0.569-1.686-1.495-3.354-2.769-4.969c-1.27-1.609-2.885-3.166-4.838-4.635c-1.946-1.464-4.228-2.841-6.838-4.096
						c-0.496-0.239-0.998-0.47-1.507-0.695c-0.508-0.224-1.022-0.442-1.542-0.652c-0.52-0.21-1.045-0.414-1.575-0.611
						c-0.53-0.196-1.065-0.386-1.605-0.569l2.501-30.314c0.548,0.179,1.092,0.365,1.63,0.558c0.539,0.193,1.072,0.392,1.6,0.599
						c0.528,0.207,1.051,0.42,1.567,0.64c0.517,0.22,1.027,0.447,1.531,0.681c2.652,1.231,4.972,2.582,6.952,4.018
						c1.986,1.441,3.631,2.968,4.924,4.547c1.298,1.585,2.244,3.222,2.826,4.875C507.078,78.37,507.298,80.047,507.142,81.705"/>
					<path fill="#8A8A8A" d="M485.463,60.791l-2.501,30.314c-0.416-0.141-0.834-0.277-1.255-0.41
						c-0.421-0.132-0.844-0.261-1.27-0.385c-0.426-0.124-0.854-0.244-1.284-0.361c-0.43-0.116-0.863-0.228-1.297-0.336l2.421-30.285
						c0.441,0.106,0.88,0.216,1.317,0.33c0.437,0.114,0.872,0.232,1.304,0.354c0.433,0.122,0.863,0.248,1.29,0.378
						C484.615,60.519,485.04,60.653,485.463,60.791"/>
					<path fill="#8F8F8F" d="M480.276,59.328l-2.421,30.285c-0.355-0.088-0.711-0.174-1.068-0.256
						c-0.357-0.083-0.716-0.163-1.076-0.24c-0.36-0.077-0.72-0.152-1.082-0.224c-0.362-0.072-0.724-0.141-1.088-0.208l2.355-30.268
						c0.369,0.065,0.737,0.133,1.104,0.204c0.367,0.071,0.733,0.144,1.099,0.22c0.365,0.076,0.729,0.154,1.092,0.236
						C479.554,59.158,479.916,59.242,480.276,59.328"/>
					<path fill="#949494" d="M475.896,58.418l-2.355,30.268c-0.335-0.061-0.671-0.12-1.007-0.177
						c-0.336-0.057-0.673-0.111-1.011-0.163c-0.338-0.052-0.676-0.102-1.014-0.149c-0.339-0.047-0.678-0.093-1.017-0.136
						l2.293-30.256c0.345,0.042,0.689,0.086,1.033,0.133c0.344,0.047,0.687,0.095,1.03,0.147c0.343,0.051,0.685,0.104,1.026,0.16
						C475.215,58.3,475.556,58.358,475.896,58.418"/>
					<path fill="#999999" d="M471.785,57.805l-2.293,30.256c-0.326-0.041-0.653-0.08-0.98-0.117
						c-0.327-0.037-0.654-0.072-0.982-0.105c-0.328-0.033-0.655-0.064-0.983-0.092c-0.328-0.029-0.656-0.055-0.984-0.079
						l2.234-30.249c0.333,0.024,0.666,0.05,0.999,0.078c0.333,0.028,0.666,0.058,0.998,0.09c0.333,0.032,0.665,0.066,0.997,0.103
						C471.122,57.726,471.454,57.764,471.785,57.805"/>
					<path fill="#9E9E9E" d="M467.796,57.418l-2.234,30.249c-0.329-0.024-0.658-0.047-0.987-0.067
						c-0.329-0.02-0.658-0.038-0.987-0.054c-0.329-0.016-0.658-0.03-0.986-0.041c-0.329-0.012-0.657-0.021-0.985-0.029l2.175-30.245
						c0.333,0.007,0.667,0.017,1,0.028c0.334,0.012,0.667,0.025,1.001,0.041c0.334,0.016,0.668,0.033,1.001,0.053
						C467.129,57.373,467.462,57.394,467.796,57.418"/>
					<path fill="#A3A3A3" d="M463.792,57.23l-2.175,30.245c-0.34-0.008-0.68-0.013-1.02-0.016c-0.34-0.003-0.679-0.004-1.018-0.003
						c-0.339,0.001-0.678,0.005-1.016,0.011s-0.676,0.014-1.013,0.024l2.115-30.246c0.342-0.01,0.685-0.018,1.028-0.024
						s0.687-0.009,1.031-0.011c0.344-0.001,0.689,0,1.033,0.003C463.102,57.217,463.447,57.223,463.792,57.23"/>
					<path fill="#A8A8A8" d="M459.665,57.246l-2.115,30.246c-0.367,0.011-0.734,0.025-1.099,0.042
						c-0.366,0.017-0.731,0.036-1.095,0.058s-0.727,0.047-1.09,0.075c-0.362,0.028-0.723,0.058-1.084,0.091l2.051-30.252
						c0.365-0.032,0.732-0.062,1.099-0.089s0.736-0.051,1.105-0.073c0.369-0.022,0.74-0.041,1.111-0.057
						C458.921,57.271,459.293,57.257,459.665,57.246"/>
					<path fill="#ADADAD" d="M455.234,57.506l-2.051,30.252c-0.422,0.039-0.842,0.081-1.26,0.127
						c-0.419,0.046-0.835,0.096-1.25,0.149c-0.415,0.053-0.828,0.111-1.239,0.171c-0.411,0.061-0.82,0.125-1.227,0.194l1.979-30.265
						c0.413-0.067,0.828-0.13,1.245-0.19c0.417-0.06,0.836-0.116,1.257-0.168c0.421-0.052,0.844-0.101,1.268-0.146
						C454.38,57.585,454.806,57.544,455.234,57.506"/>
					<path fill="#B3B3B3" d="M450.185,58.134l-1.979,30.265c-0.633,0.106-1.26,0.221-1.882,0.345
						c-0.622,0.124-1.237,0.257-1.847,0.399c-0.609,0.142-1.212,0.293-1.807,0.454c-0.596,0.16-1.184,0.33-1.764,0.508l1.875-30.298
						c0.588-0.175,1.185-0.341,1.789-0.498c0.604-0.157,1.215-0.305,1.833-0.445c0.618-0.139,1.242-0.27,1.873-0.391
						C448.906,58.351,449.543,58.238,450.185,58.134"/>
					<path fill="#B8B8B8" d="M442.781,59.806l-1.875,30.298c-0.752,0.231-1.49,0.477-2.214,0.739
						c-0.724,0.262-1.433,0.539-2.126,0.831c-0.693,0.292-1.37,0.6-2.029,0.924c-0.66,0.323-1.301,0.662-1.924,1.017l1.759-30.367
						c0.631-0.347,1.282-0.68,1.951-0.997c0.668-0.317,1.355-0.619,2.058-0.906c0.703-0.287,1.422-0.558,2.156-0.815
						C441.269,60.274,442.018,60.033,442.781,59.806"/>
				</g>
			</g>
			<g enable-background="new    ">
				<defs>
					<path id="SVGID_3_" enable-background="new    " d="M133.839,112.526l-2.748-30.754c-0.147-1.648,0.075-3.314,0.657-4.962
						c0.58-1.642,1.517-3.266,2.803-4.837c1.281-1.566,2.908-3.08,4.872-4.508c1.958-1.424,4.253-2.763,6.876-3.984
						c4.354-2.027,9.21-3.541,14.266-4.546c5.044-1.003,10.3-1.503,15.469-1.501c5.169,0.002,10.264,0.505,14.987,1.511
						c4.733,1.009,9.104,2.525,12.809,4.555l1.624,30.394c-3.655-2.069-7.964-3.615-12.63-4.643
						c-4.656-1.026-9.677-1.539-14.771-1.54c-5.094-0.001-10.271,0.509-15.239,1.532c-4.979,1.026-9.76,2.57-14.044,4.637
						c-2.581,1.245-4.838,2.611-6.763,4.063c-1.931,1.456-3.53,3-4.787,4.596c-1.262,1.602-2.18,3.257-2.746,4.93
						C133.902,109.148,133.689,110.846,133.839,112.526z"/>
				</defs>
				<clipPath id="SVGID_4_">
					<use xlink:href="#SVGID_3_"  overflow="visible"/>
				</clipPath>
				<g clip-path="url(#SVGID_4_)" enable-background="new    ">
					<path fill="#858585" d="M203.828,63.499l1.624,30.394c-0.422-0.239-0.852-0.471-1.291-0.696
						c-0.439-0.225-0.885-0.443-1.34-0.653c-0.454-0.211-0.916-0.415-1.386-0.611c-0.469-0.197-0.946-0.387-1.429-0.569
						l-1.701-30.346c0.49,0.179,0.973,0.366,1.449,0.559c0.476,0.193,0.945,0.393,1.405,0.6c0.461,0.207,0.914,0.42,1.359,0.641
						C202.964,63.037,203.4,63.265,203.828,63.499"/>
					<path fill="#8A8A8A" d="M198.306,61.017l1.701,30.346c-0.372-0.141-0.748-0.278-1.129-0.41
						c-0.38-0.133-0.764-0.261-1.151-0.386c-0.387-0.124-0.779-0.245-1.173-0.361c-0.394-0.116-0.792-0.228-1.194-0.336
						l-1.767-30.318c0.407,0.106,0.811,0.216,1.211,0.33c0.4,0.114,0.797,0.232,1.19,0.354c0.393,0.122,0.782,0.248,1.168,0.378
						C197.547,60.745,197.928,60.879,198.306,61.017"/>
					<path fill="#8F8F8F" d="M193.593,59.553l1.767,30.318c-0.328-0.088-0.658-0.174-0.99-0.257
						c-0.332-0.083-0.666-0.163-1.002-0.24c-0.336-0.077-0.674-0.152-1.013-0.224c-0.34-0.072-0.681-0.141-1.024-0.208l-1.825-30.3
						c0.348,0.065,0.695,0.133,1.039,0.204c0.345,0.071,0.687,0.144,1.028,0.22c0.341,0.076,0.68,0.155,1.016,0.236
						C192.926,59.382,193.261,59.466,193.593,59.553"/>
					<path fill="#949494" d="M189.506,58.641l1.825,30.3c-0.316-0.061-0.634-0.12-0.953-0.177c-0.319-0.057-0.639-0.111-0.961-0.163
						c-0.322-0.052-0.645-0.102-0.969-0.15c-0.324-0.048-0.65-0.093-0.976-0.136l-1.88-30.288c0.331,0.042,0.661,0.087,0.99,0.133
						c0.329,0.047,0.657,0.096,0.983,0.147c0.326,0.051,0.651,0.105,0.975,0.16C188.863,58.523,189.185,58.581,189.506,58.641"/>
					<path fill="#999999" d="M185.591,58.027l1.88,30.288c-0.314-0.041-0.629-0.08-0.945-0.118
						c-0.316-0.037-0.633-0.072-0.951-0.105c-0.318-0.033-0.637-0.064-0.956-0.092c-0.32-0.029-0.64-0.055-0.961-0.08l-1.936-30.281
						c0.326,0.024,0.651,0.05,0.975,0.078c0.324,0.028,0.648,0.058,0.97,0.09c0.322,0.032,0.644,0.067,0.965,0.103
						C184.953,57.948,185.272,57.987,185.591,58.027"/>
					<path fill="#9E9E9E" d="M181.722,57.641l1.936,30.281c-0.322-0.024-0.644-0.047-0.967-0.067
						c-0.323-0.02-0.647-0.038-0.971-0.054c-0.324-0.016-0.649-0.03-0.975-0.042c-0.326-0.012-0.652-0.021-0.978-0.029
						l-1.993-30.278c0.331,0.007,0.662,0.017,0.993,0.028c0.33,0.012,0.66,0.025,0.989,0.041c0.329,0.016,0.658,0.033,0.986,0.053
						C181.069,57.595,181.396,57.617,181.722,57.641"/>
					<path fill="#A3A3A3" d="M177.773,57.452l1.993,30.278c-0.338-0.008-0.677-0.013-1.017-0.016s-0.679-0.004-1.019-0.003
						s-0.68,0.005-1.021,0.011c-0.341,0.006-0.682,0.014-1.023,0.025l-2.054-30.278c0.346-0.01,0.692-0.018,1.038-0.024
						c0.346-0.006,0.691-0.009,1.036-0.011c0.345-0.001,0.69,0,1.034,0.003S177.43,57.445,177.773,57.452"/>
					<path fill="#A8A8A8" d="M173.633,57.468l2.054,30.278c-0.371,0.011-0.743,0.025-1.115,0.042
						c-0.372,0.017-0.743,0.036-1.115,0.058c-0.372,0.022-0.743,0.047-1.115,0.075c-0.372,0.028-0.743,0.058-1.114,0.091
						l-2.12-30.284c0.377-0.032,0.754-0.062,1.131-0.089c0.377-0.027,0.754-0.051,1.132-0.073c0.377-0.022,0.755-0.041,1.132-0.057
						C172.879,57.493,173.256,57.479,173.633,57.468"/>
					<path fill="#ADADAD" d="M169.108,57.728l2.12,30.284c-0.435,0.039-0.869,0.081-1.303,0.127c-0.434,0.046-0.867,0.096-1.3,0.149
						c-0.433,0.053-0.865,0.111-1.296,0.172c-0.431,0.061-0.862,0.126-1.291,0.194l-2.199-30.297c0.436-0.067,0.873-0.13,1.311-0.19
						c0.438-0.06,0.876-0.116,1.316-0.168c0.439-0.052,0.879-0.101,1.32-0.146C168.226,57.808,168.667,57.766,169.108,57.728"/>
					<path fill="#B3B3B3" d="M163.84,58.357l2.199,30.297c-0.668,0.106-1.333,0.222-1.995,0.346c-0.662,0.124-1.321,0.258-1.976,0.4
						c-0.655,0.142-1.307,0.294-1.954,0.454c-0.647,0.161-1.29,0.33-1.928,0.509l-2.32-30.331c0.648-0.175,1.3-0.341,1.958-0.499
						c0.657-0.157,1.319-0.306,1.984-0.445c0.665-0.14,1.334-0.27,2.007-0.392C162.487,58.574,163.162,58.461,163.84,58.357"/>
					<path fill="#B8B8B8" d="M155.866,60.032l2.32,30.331c-0.826,0.232-1.644,0.478-2.452,0.74c-0.808,0.262-1.606,0.54-2.393,0.833
						c-0.787,0.293-1.563,0.601-2.325,0.925c-0.763,0.324-1.513,0.664-2.249,1.018c-0.045,0.022-0.091,0.044-0.136,0.066
						c-0.045,0.022-0.09,0.044-0.135,0.066c-0.045,0.022-0.09,0.044-0.135,0.066c-0.045,0.022-0.089,0.044-0.134,0.066
						l-2.478-30.405c0.045-0.022,0.091-0.043,0.136-0.065c0.046-0.022,0.091-0.043,0.137-0.065c0.046-0.022,0.092-0.043,0.137-0.065
						c0.046-0.022,0.092-0.043,0.138-0.065c0.748-0.348,1.51-0.681,2.285-0.999c0.775-0.317,1.563-0.62,2.362-0.907
						c0.799-0.287,1.61-0.559,2.431-0.816C154.196,60.501,155.027,60.259,155.866,60.032"/>
					<path fill="#B3B3B3" d="M145.749,63.74l2.478,30.405c-0.538,0.268-1.062,0.541-1.57,0.819c-0.509,0.278-1.004,0.562-1.483,0.85
						c-0.48,0.288-0.945,0.581-1.395,0.878c-0.451,0.297-0.886,0.599-1.307,0.905l-2.574-30.471c0.428-0.3,0.871-0.596,1.329-0.887
						c0.458-0.291,0.931-0.579,1.419-0.861c0.488-0.282,0.99-0.56,1.508-0.833C144.67,64.27,145.202,64.002,145.749,63.74"/>
					<path fill="#ADADAD" d="M139.898,67.125l2.574,30.471c-0.274,0.199-0.542,0.401-0.804,0.603
						c-0.262,0.203-0.517,0.407-0.766,0.613c-0.249,0.206-0.492,0.414-0.728,0.623c-0.236,0.209-0.466,0.42-0.69,0.632
						l-2.626-30.519c0.227-0.208,0.461-0.415,0.702-0.62c0.24-0.205,0.487-0.409,0.741-0.611c0.253-0.202,0.513-0.403,0.779-0.602
						C139.346,67.518,139.619,67.321,139.898,67.125"/>
					<path fill="#A8A8A8" d="M136.858,69.549l2.626,30.519c-0.192,0.182-0.378,0.364-0.56,0.548
						c-0.182,0.184-0.359,0.368-0.532,0.554c-0.173,0.186-0.34,0.372-0.504,0.559c-0.163,0.187-0.321,0.376-0.475,0.565
						l-2.664-30.561c0.156-0.185,0.318-0.37,0.484-0.554c0.166-0.184,0.337-0.367,0.513-0.549c0.176-0.182,0.356-0.363,0.542-0.543
						C136.473,69.907,136.663,69.727,136.858,69.549"/>
					<path fill="#A3A3A3" d="M134.749,71.733l2.664,30.561c-0.142,0.175-0.28,0.35-0.414,0.527c-0.134,0.176-0.264,0.353-0.389,0.53
						c-0.126,0.177-0.247,0.355-0.364,0.534c-0.117,0.179-0.231,0.358-0.34,0.537l-2.693-30.602
						c0.111-0.176,0.227-0.352,0.346-0.527c0.12-0.175,0.243-0.35,0.372-0.524c0.128-0.174,0.26-0.347,0.397-0.52
						C134.464,72.077,134.604,71.904,134.749,71.733"/>
					<path fill="#9E9E9E" d="M133.213,73.821l2.693,30.602c-0.106,0.175-0.208,0.35-0.306,0.526
						c-0.098,0.176-0.193,0.352-0.283,0.528c-0.09,0.177-0.177,0.353-0.259,0.531c-0.082,0.177-0.161,0.355-0.235,0.533
						l-2.715-30.642c0.076-0.175,0.156-0.349,0.24-0.523c0.084-0.174,0.172-0.347,0.265-0.521c0.092-0.173,0.188-0.346,0.289-0.518
						C133.001,74.164,133.105,73.992,133.213,73.821"/>
					<path fill="#999999" d="M132.107,75.898l2.715,30.642c-0.075,0.18-0.146,0.36-0.213,0.54c-0.067,0.18-0.13,0.361-0.189,0.541
						c-0.059,0.181-0.114,0.362-0.164,0.543c-0.051,0.181-0.097,0.363-0.139,0.544l-2.733-30.683
						c0.044-0.178,0.091-0.356,0.143-0.534c0.052-0.178,0.108-0.355,0.168-0.533c0.06-0.177,0.125-0.354,0.193-0.531
						C131.957,76.251,132.03,76.075,132.107,75.898"/>
					<path fill="#949494" d="M131.384,78.026l2.733,30.683c-0.044,0.19-0.084,0.38-0.119,0.57c-0.035,0.19-0.066,0.38-0.092,0.571
						c-0.026,0.19-0.048,0.381-0.065,0.571c-0.017,0.19-0.03,0.381-0.037,0.571l-2.744-30.725c0.009-0.187,0.022-0.374,0.04-0.56
						c0.018-0.187,0.04-0.374,0.068-0.56c0.027-0.187,0.059-0.373,0.095-0.56C131.297,78.398,131.338,78.212,131.384,78.026"/>
					<path fill="#8F8F8F" d="M131.058,80.265l2.744,30.725c-0.005,0.128-0.009,0.256-0.01,0.384c-0.001,0.128,0,0.256,0.003,0.384
						c0.003,0.128,0.008,0.256,0.015,0.384c0.007,0.128,0.017,0.256,0.028,0.383l-2.748-30.754c-0.011-0.125-0.02-0.251-0.027-0.376
						c-0.007-0.125-0.012-0.251-0.014-0.377c-0.003-0.126-0.003-0.251-0.002-0.377C131.049,80.517,131.052,80.391,131.058,80.265"/>
				</g>
			</g>
			<g enable-background="new    ">
				<defs>
					<path id="SVGID_5_" enable-background="new    " d="M552.138,79.234c-1.183,10.222-2.365,20.443-3.548,30.665
						c-0.216,1.865-0.687,3.716-1.419,5.538c-0.735,1.828-1.733,3.627-2.999,5.378c-1.271,1.758-2.812,3.469-4.628,5.116
						c-1.822,1.653-3.921,3.241-6.301,4.747l3.391-31.049c2.411-1.479,4.537-3.038,6.381-4.661c1.838-1.617,3.396-3.296,4.679-5.022
						c1.279-1.719,2.285-3.484,3.024-5.278C551.455,82.881,551.926,81.065,552.138,79.234z"/>
				</defs>
				<clipPath id="SVGID_6_">
					<use xlink:href="#SVGID_5_"  overflow="visible"/>
				</clipPath>
				<g clip-path="url(#SVGID_6_)" enable-background="new    ">
					<path fill="#9E9E9E" d="M552.138,79.234l-3.548,30.665c-0.008,0.065-0.015,0.129-0.023,0.194
						c-0.008,0.065-0.016,0.129-0.025,0.194c-0.009,0.065-0.018,0.129-0.027,0.194c-0.009,0.065-0.019,0.129-0.029,0.193
						l3.549-30.68c0.01-0.063,0.019-0.127,0.029-0.19c0.009-0.063,0.018-0.127,0.027-0.19c0.009-0.063,0.017-0.127,0.025-0.19
						C552.123,79.361,552.131,79.298,552.138,79.234"/>
					<path fill="#A3A3A3" d="M552.035,79.994l-3.549,30.68c-0.051,0.33-0.11,0.659-0.177,0.988
						c-0.067,0.329-0.142,0.657-0.225,0.985c-0.083,0.328-0.175,0.655-0.274,0.982c-0.1,0.327-0.207,0.653-0.323,0.978l3.549-30.753
						c0.116-0.319,0.225-0.639,0.325-0.959c0.1-0.32,0.191-0.642,0.275-0.963c0.083-0.322,0.158-0.644,0.225-0.967
						C551.927,80.641,551.985,80.318,552.035,79.994"/>
					<path fill="#A8A8A8" d="M551.036,83.853l-3.549,30.753c-0.126,0.352-0.261,0.702-0.405,1.052
						c-0.145,0.35-0.299,0.699-0.464,1.046c-0.164,0.348-0.338,0.694-0.522,1.039c-0.184,0.345-0.378,0.689-0.581,1.032l3.535-30.83
						c0.205-0.336,0.401-0.674,0.586-1.013c0.185-0.339,0.361-0.679,0.526-1.02c0.165-0.341,0.321-0.683,0.467-1.027
						C550.774,84.542,550.91,84.198,551.036,83.853"/>
					<path fill="#ADADAD" d="M549.049,87.945l-3.535,30.83c-0.238,0.4-0.489,0.798-0.753,1.194c-0.265,0.396-0.543,0.79-0.835,1.182
						c-0.292,0.392-0.598,0.781-0.917,1.168c-0.319,0.387-0.652,0.772-0.999,1.154l3.5-30.917c0.351-0.375,0.687-0.752,1.01-1.132
						c0.323-0.38,0.631-0.762,0.926-1.147c0.295-0.384,0.576-0.771,0.843-1.16C548.556,88.728,548.81,88.338,549.049,87.945"/>
					<path fill="#B3B3B3" d="M545.51,92.556l-3.5,30.917c-0.532,0.586-1.097,1.166-1.694,1.739
						c-0.598,0.573-1.228,1.139-1.891,1.697c-0.664,0.559-1.36,1.109-2.089,1.651c-0.73,0.542-1.493,1.076-2.289,1.6l3.402-31.039
						c0.807-0.515,1.58-1.039,2.319-1.571c0.739-0.532,1.444-1.072,2.115-1.621c0.671-0.548,1.309-1.103,1.913-1.666
						C544.4,93.701,544.971,93.132,545.51,92.556"/>
					<path fill="#B8B8B8" d="M537.449,99.121l-3.402,31.039c-0.066,0.043-0.132,0.087-0.199,0.13s-0.133,0.087-0.2,0.13
						c-0.067,0.043-0.134,0.086-0.201,0.129s-0.135,0.086-0.203,0.129l3.391-31.049c0.069-0.042,0.137-0.084,0.206-0.127
						c0.068-0.042,0.136-0.085,0.204-0.127s0.135-0.085,0.203-0.127C537.315,99.206,537.382,99.163,537.449,99.121"/>
				</g>
			</g>
			<g enable-background="new    ">
				<defs>
					<path id="SVGID_7_" enable-background="new    " d="M89.339,109.852l-3.416-30.708c0.207,1.86,0.68,3.707,1.426,5.525
						c0.749,1.825,1.772,3.62,3.076,5.369c1.309,1.756,2.899,3.464,4.777,5.108c1.885,1.65,4.058,3.236,6.525,4.739l3.252,31.095
						c-2.434-1.53-4.58-3.145-6.442-4.825c-1.855-1.675-3.428-3.415-4.723-5.203c-1.29-1.781-2.305-3.61-3.05-5.47
						C90.023,113.629,89.55,111.748,89.339,109.852z"/>
				</defs>
				<clipPath id="SVGID_8_">
					<use xlink:href="#SVGID_7_"  overflow="visible"/>
				</clipPath>
				<g clip-path="url(#SVGID_8_)" enable-background="new    ">
					<path fill="#858585" d="M101.727,99.884l3.252,31.095c-2.434-1.53-4.58-3.145-6.442-4.825
						c-1.855-1.675-3.428-3.415-4.723-5.203c-1.29-1.781-2.305-3.61-3.05-5.47c-0.742-1.852-1.215-3.734-1.426-5.629l-3.416-30.708
						c0.207,1.86,0.68,3.707,1.426,5.525c0.749,1.825,1.772,3.62,3.076,5.369c1.309,1.756,2.899,3.464,4.777,5.108
						C97.087,96.796,99.26,98.381,101.727,99.884"/>
				</g>
			</g>
			<g>
				<polygon fill="#BEBEBE" points="434.371,63.248 432.612,93.615 343.342,144.422 343.797,113.11 				"/>
			</g>
			<g>
				<polygon fill="#858585" points="343.797,113.11 343.342,144.422 318.961,131.004 319.031,99.929 				"/>
			</g>
			<g>
				<polygon fill="#848484" points="294.389,113.104 294.7,144.42 205.452,93.893 203.828,63.499 				"/>
			</g>
			<g>
				<polygon fill="#848484" points="319.16,126.673 319.086,158.227 294.7,144.42 294.389,113.104 				"/>
			</g>
			<g>
				<path fill="#D2D2D2" d="M523.342,45.243c7.932,3.547,14.301,7.681,19.022,12.136c4.77,4.501,7.864,9.336,9.18,14.225
					c1.33,4.944,0.842,9.942-1.575,14.696c-2.443,4.805-6.854,9.354-13.334,13.329l-101.357,62.169l-27.414-14.591l90.116-53.509
					c3.651-2.168,6.193-4.66,7.667-7.304c1.466-2.629,1.877-5.407,1.278-8.168c-0.596-2.744-2.189-5.471-4.737-8.022
					c-2.533-2.536-6.012-4.9-10.397-6.935c-4.366-2.027-9.227-3.541-14.283-4.549c-5.045-1.005-10.295-1.508-15.455-1.51
					c-5.16-0.002-10.24,0.497-14.944,1.498c-4.715,1.004-9.062,2.515-12.738,4.539l-90.574,49.862l-24.766-13.181l102.353-54.724
					c6.572-3.514,14.298-6.129,22.651-7.862c8.318-1.726,17.29-2.584,26.403-2.581c9.112,0.004,18.402,0.869,27.356,2.602
					C506.784,39.104,515.475,41.725,523.342,45.243z"/>
			</g>
			<g>
				<polygon fill="#B6B6B6" points="536.635,99.63 533.243,130.678 433.309,193.935 435.278,161.799 				"/>
			</g>
			<g>
				<polygon fill="#858585" points="435.278,161.799 433.309,193.935 406.364,179.106 407.864,147.208 				"/>
			</g>
			<g>
				<polygon fill="#848484" points="383.29,161.8 382.168,193.94 319.086,158.227 319.16,126.673 				"/>
			</g>
			<g>
				<polygon fill="#D2D2D2" points="319.16,126.673 255.367,161.791 230.629,147.194 294.389,113.104 				"/>
			</g>
			<g>
				<polygon fill="#828282" points="255.367,161.791 256.33,193.943 231.976,179.107 230.629,147.194 				"/>
			</g>
			<g>
				<polygon fill="#BEBEBE" points="319.16,126.673 319.086,158.227 256.33,193.943 255.367,161.791 				"/>
			</g>
			<g>
				<polygon fill="#818181" points="203.331,161.789 205.143,193.946 104.979,130.979 101.727,99.884 				"/>
			</g>
			<g>
				<polygon fill="#848484" points="410.752,176.843 409.159,209.221 382.168,193.94 383.29,161.8 				"/>
			</g>
			<g>
				<polygon fill="#818181" points="228.032,176.839 229.463,209.234 205.143,193.946 203.331,161.789 				"/>
			</g>
			<g>
				<polygon fill="#828282" points="347.068,215.905 346.507,248.879 319.448,232.394 319.534,199.657 				"/>
			</g>
			<g>
				<polygon fill="#B6B6B6" points="410.752,176.843 409.159,209.221 346.507,248.879 347.068,215.905 				"/>
			</g>
			<g>
				<polygon fill="#D2D2D2" points="319.534,199.657 383.29,161.8 410.752,176.843 347.068,215.905 				"/>
			</g>
			<g>
				<polygon fill="#818181" points="292.161,215.911 292.544,248.89 229.463,209.234 228.032,176.839 				"/>
			</g>
			<g>
				<polygon fill="#818181" points="319.701,232.691 319.61,265.904 292.544,248.89 292.161,215.911 				"/>
			</g>
			<g>
				<polygon fill="#848484" points="527.058,240.55 523.318,273.852 409.159,209.221 410.752,176.843 				"/>
			</g>
			<g>
				<polygon fill="#BEBEBE" points="228.032,176.839 229.463,209.234 116.566,273.488 113.02,240.155 				"/>
			</g>
			<g enable-background="new    ">
				<defs>
					<path id="SVGID_9_" enable-background="new    " d="M546.371,268.923l-4.188,33.672c0.32-2.572,0.14-5.186-0.524-7.779
						c-0.661-2.581-1.801-5.142-3.404-7.621c-1.596-2.468-3.651-4.855-6.152-7.102c-2.49-2.238-5.423-4.338-8.785-6.241l3.74-33.302
						c3.429,1.878,6.422,3.95,8.965,6.159c2.554,2.218,4.655,4.574,6.289,7.01c1.642,2.447,2.812,4.975,3.495,7.523
						C546.493,263.802,546.687,266.383,546.371,268.923z"/>
				</defs>
				<clipPath id="SVGID_10_">
					<use xlink:href="#SVGID_9_"  overflow="visible"/>
				</clipPath>
				<g clip-path="url(#SVGID_10_)" enable-background="new    ">
					<path fill="#858585" d="M546.371,268.923l-4.188,33.672c0.32-2.572,0.14-5.186-0.524-7.779
						c-0.661-2.581-1.801-5.142-3.404-7.621c-1.596-2.468-3.651-4.855-6.152-7.102c-2.49-2.238-5.423-4.338-8.785-6.241l3.74-33.302
						c3.429,1.878,6.422,3.95,8.965,6.159c2.554,2.218,4.655,4.574,6.289,7.01c1.642,2.447,2.812,4.975,3.495,7.523
						C546.493,263.802,546.687,266.383,546.371,268.923"/>
				</g>
			</g>
			<g enable-background="new    ">
				<defs>
					<path id="SVGID_11_" enable-background="new    " d="M97.924,301.923c-1.328-11.235-2.656-22.468-3.984-33.703
						c-0.297-2.516-0.097-5.071,0.586-7.604c0.68-2.521,1.838-5.02,3.458-7.439c1.613-2.408,3.685-4.737,6.202-6.929
						c2.506-2.184,5.455-4.233,8.833-6.093l3.546,33.334c-3.313,1.885-6.202,3.963-8.656,6.176
						c-2.464,2.222-4.491,4.582-6.067,7.022c-1.583,2.451-2.711,4.982-3.37,7.536C97.811,296.787,97.623,299.375,97.924,301.923z"/>
				</defs>
				<clipPath id="SVGID_12_">
					<use xlink:href="#SVGID_11_"  overflow="visible"/>
				</clipPath>
				<g clip-path="url(#SVGID_12_)" enable-background="new    ">
					<path fill="#B8B8B8" d="M113.02,240.155l3.546,33.334c-0.055,0.031-0.11,0.063-0.166,0.095
						c-0.055,0.032-0.11,0.063-0.165,0.095c-0.055,0.032-0.11,0.063-0.164,0.095c-0.055,0.032-0.109,0.064-0.163,0.096
						l-3.559-33.339c0.055-0.031,0.111-0.063,0.167-0.094c0.056-0.031,0.111-0.063,0.167-0.094c0.056-0.031,0.112-0.062,0.168-0.094
						C112.907,240.217,112.963,240.186,113.02,240.155"/>
					<path fill="#B3B3B3" d="M112.349,240.53l3.559,33.339c-0.656,0.385-1.296,0.778-1.918,1.178
						c-0.622,0.4-1.227,0.808-1.815,1.222c-0.588,0.415-1.158,0.836-1.711,1.264c-0.553,0.428-1.089,0.862-1.607,1.302
						l-3.703-33.405c0.529-0.434,1.076-0.863,1.641-1.285c0.564-0.422,1.147-0.838,1.746-1.247c0.599-0.409,1.217-0.811,1.852-1.206
						C111.027,241.297,111.679,240.91,112.349,240.53"/>
					<path fill="#ADADAD" d="M105.154,245.43l3.703,33.405c-0.338,0.287-0.668,0.577-0.991,0.869
						c-0.323,0.292-0.639,0.587-0.947,0.883c-0.308,0.297-0.609,0.596-0.902,0.897c-0.293,0.301-0.578,0.605-0.856,0.91
						l-3.782-33.453c0.284-0.301,0.576-0.601,0.875-0.898c0.299-0.297,0.606-0.592,0.921-0.885c0.315-0.293,0.637-0.583,0.967-0.872
						C104.472,245.999,104.809,245.713,105.154,245.43"/>
					<path fill="#A8A8A8" d="M101.379,248.942l3.782,33.453c-0.238,0.262-0.47,0.525-0.697,0.79
						c-0.227,0.265-0.448,0.531-0.664,0.798c-0.216,0.268-0.426,0.536-0.63,0.807c-0.204,0.27-0.403,0.542-0.596,0.814l-3.84-33.495
						c0.197-0.269,0.401-0.537,0.61-0.804c0.209-0.267,0.424-0.532,0.644-0.796c0.22-0.264,0.447-0.527,0.679-0.788
						C100.899,249.461,101.136,249.201,101.379,248.942"/>
					<path fill="#A3A3A3" d="M98.734,252.11l3.84,33.495c-0.179,0.252-0.352,0.505-0.521,0.76c-0.169,0.254-0.333,0.509-0.492,0.765
						c-0.159,0.256-0.313,0.513-0.462,0.771c-0.149,0.258-0.294,0.516-0.433,0.776l-3.886-33.535
						c0.143-0.256,0.291-0.511,0.444-0.766c0.153-0.254,0.311-0.508,0.474-0.761c0.163-0.253,0.331-0.504,0.503-0.755
						C98.374,252.608,98.551,252.359,98.734,252.11"/>
					<path fill="#9E9E9E" d="M96.78,255.141l3.886,33.535c-0.136,0.252-0.266,0.505-0.393,0.759
						c-0.126,0.254-0.248,0.508-0.364,0.763c-0.117,0.255-0.229,0.511-0.336,0.767c-0.107,0.256-0.21,0.513-0.308,0.77
						l-3.922-33.574c0.1-0.254,0.206-0.507,0.316-0.76c0.11-0.253,0.225-0.505,0.345-0.757c0.12-0.252,0.244-0.503,0.374-0.753
						C96.507,255.64,96.641,255.39,96.78,255.141"/>
					<path fill="#999999" d="M95.343,258.16l3.922,33.574c-0.099,0.26-0.193,0.52-0.282,0.78c-0.089,0.261-0.173,0.522-0.252,0.783
						c-0.079,0.261-0.153,0.523-0.223,0.785c-0.069,0.262-0.134,0.524-0.193,0.787l-3.951-33.614c0.062-0.259,0.128-0.518,0.2-0.777
						c0.072-0.259,0.148-0.517,0.23-0.775c0.082-0.258,0.168-0.516,0.26-0.773C95.145,258.673,95.242,258.416,95.343,258.16"/>
					<path fill="#949494" d="M94.365,261.255l3.951,33.614c-0.062,0.275-0.119,0.55-0.17,0.825c-0.051,0.275-0.097,0.55-0.138,0.826
						c-0.04,0.275-0.075,0.551-0.105,0.826c-0.029,0.276-0.053,0.551-0.072,0.827l-3.972-33.656c0.02-0.272,0.045-0.544,0.076-0.816
						c0.031-0.272,0.068-0.544,0.11-0.816c0.042-0.272,0.09-0.544,0.143-0.815C94.242,261.797,94.3,261.526,94.365,261.255"/>
					<path fill="#8F8F8F" d="M93.859,264.516l3.972,33.656c-0.021,0.306-0.034,0.612-0.041,0.917c-0.007,0.306-0.007,0.611,0,0.916
						c0.007,0.305,0.021,0.61,0.041,0.915c0.021,0.305,0.048,0.609,0.083,0.913l-3.984-33.702c-0.034-0.3-0.061-0.6-0.081-0.901
						c-0.02-0.301-0.033-0.602-0.039-0.903c-0.006-0.301-0.005-0.603,0.003-0.905C93.822,265.12,93.837,264.818,93.859,264.516"/>
					<path fill="#8A8A8A" d="M93.93,268.131l3.984,33.702c0.001,0.007,0.002,0.015,0.003,0.022c0.001,0.007,0.002,0.015,0.003,0.022
						c0.001,0.007,0.002,0.015,0.003,0.022s0.002,0.015,0.003,0.022L93.94,268.22c-0.001-0.007-0.002-0.015-0.003-0.022
						c-0.001-0.007-0.002-0.015-0.003-0.022c-0.001-0.007-0.002-0.015-0.003-0.022C93.932,268.146,93.931,268.139,93.93,268.131"/>
				</g>
			</g>
			<g>
				<polygon fill="#818181" points="455.173,315.231 452.524,349.459 319.61,265.904 319.701,232.691 				"/>
			</g>
			<g>
				<polygon fill="#B6B6B6" points="319.701,232.691 319.61,265.904 188.255,349.049 185.833,314.802 				"/>
			</g>
			<g>
				<path fill="#D2D2D2" d="M569.259,233.107c9.916,5.278,17.98,11.442,24.069,18.102c6.166,6.744,10.317,14.009,12.298,21.373
					c2.009,7.466,1.788,15.036-0.829,22.255c-2.652,7.315-7.759,14.258-15.48,20.34c-7.806,6.149-17.506,10.807-28.355,13.936
					c-10.909,3.146-22.921,4.729-35.26,4.735c-12.339,0.006-24.936-1.566-37.011-4.703c-12.009-3.12-23.435-7.77-33.52-13.914
					l-135.472-82.54l-27.541-16.78l-64.128-39.072l-24.702-15.05L101.727,99.884c-6.541-3.986-11.014-8.546-13.517-13.363
					c-2.476-4.765-3.019-9.775-1.738-14.728c1.267-4.898,4.319-9.741,9.054-14.248c4.687-4.461,11.029-8.598,18.945-12.146
					c7.849-3.518,16.533-6.137,25.527-7.872c8.957-1.728,18.258-2.588,27.39-2.585c9.132,0.004,18.131,0.87,26.483,2.605
					c8.386,1.742,16.154,4.367,22.774,7.89l102.384,54.491l24.766,13.181l64.067,34.098l27.414,14.591L569.259,233.107z
					 M464.045,284.935c5.423,3.2,11.537,5.612,17.943,7.225c6.425,1.617,13.125,2.426,19.697,2.423
					c6.572-0.003,12.996-0.817,18.87-2.439c5.857-1.617,11.15-4.033,15.485-7.236c4.31-3.184,7.257-6.839,8.902-10.712
					c1.634-3.845,1.982-7.903,1.112-11.93c-0.864-3.997-2.929-7.963-6.132-11.668c-3.181-3.679-7.487-7.103-12.865-10.049
					l-116.306-63.707L383.29,161.8l-64.13-35.127l-24.771-13.569l-90.561-49.605c-3.705-2.029-8.076-3.546-12.809-4.555
					c-4.723-1.006-9.817-1.51-14.987-1.511c-5.169-0.002-10.425,0.498-15.469,1.501c-5.056,1.006-9.912,2.519-14.266,4.546
					c-4.374,2.037-7.836,4.402-10.348,6.941c-2.527,2.554-4.095,5.285-4.663,8.034c-0.571,2.766-0.129,5.549,1.369,8.184
					c1.507,2.65,4.082,5.148,7.765,7.321l90.208,53.233l24.738,14.598l64.167,37.866l27.534,16.248L464.045,284.935"/>
			</g>
			<g enable-background="new    ">
				<defs>
					<path id="SVGID_13_" enable-background="new    " d="M606.529,288.143l-5.366,33.904c-0.388,2.45-1.022,4.876-1.909,7.263
						c-0.891,2.397-2.035,4.753-3.44,7.052c-1.41,2.308-3.082,4.558-5.021,6.732c-1.946,2.183-4.16,4.288-6.647,6.3
						c-7.687,6.217-17.223,10.926-27.878,14.089c-10.714,3.18-22.502,4.781-34.605,4.787c-12.103,0.007-24.455-1.58-36.29-4.749
						c-11.772-3.152-22.97-7.851-32.849-14.062l2.649-34.228c10.084,6.144,21.511,10.795,33.52,13.914
						c12.074,3.137,24.672,4.708,37.011,4.703c12.338-0.006,24.35-1.588,35.26-4.735c10.849-3.129,20.549-7.787,28.355-13.936
						c2.526-1.989,4.772-4.072,6.745-6.23c1.965-2.15,3.658-4.374,5.084-6.656c1.42-2.272,2.576-4.602,3.471-6.97
						C605.511,292.962,606.146,290.564,606.529,288.143z"/>
				</defs>
				<clipPath id="SVGID_14_">
					<use xlink:href="#SVGID_13_"  overflow="visible"/>
				</clipPath>
				<g clip-path="url(#SVGID_14_)" enable-background="new    ">
					<path fill="#A3A3A3" d="M606.529,288.143l-5.366,33.904c-0.04,0.252-0.082,0.504-0.127,0.755
						c-0.045,0.251-0.093,0.503-0.143,0.754c-0.05,0.251-0.103,0.502-0.159,0.752c-0.056,0.251-0.114,0.501-0.175,0.751
						l5.369-33.939c0.061-0.247,0.119-0.494,0.175-0.742c0.055-0.248,0.108-0.495,0.158-0.743c0.05-0.248,0.097-0.496,0.142-0.745
						C606.447,288.641,606.489,288.392,606.529,288.143"/>
					<path fill="#A8A8A8" d="M605.927,291.119l-5.369,33.939c-0.129,0.53-0.271,1.059-0.424,1.587
						c-0.153,0.528-0.319,1.054-0.496,1.579c-0.177,0.525-0.367,1.048-0.568,1.569c-0.202,0.522-0.416,1.041-0.642,1.559
						l5.359-34.013c0.228-0.512,0.443-1.025,0.646-1.541c0.203-0.515,0.393-1.032,0.572-1.551c0.178-0.518,0.344-1.038,0.497-1.56
						C605.657,292.166,605.798,291.643,605.927,291.119"/>
					<path fill="#ADADAD" d="M603.788,297.339l-5.359,34.013c-0.264,0.605-0.545,1.207-0.842,1.805
						c-0.298,0.599-0.612,1.195-0.944,1.788c-0.332,0.593-0.68,1.183-1.046,1.768c-0.366,0.586-0.749,1.169-1.149,1.747
						l5.318-34.094c0.405-0.572,0.792-1.148,1.162-1.727c0.37-0.579,0.722-1.162,1.057-1.748c0.335-0.586,0.652-1.175,0.953-1.767
						C603.239,298.532,603.522,297.937,603.788,297.339"/>
					<path fill="#B3B3B3" d="M599.766,304.366l-5.318,34.094c-0.614,0.888-1.269,1.767-1.964,2.634
						c-0.696,0.869-1.433,1.727-2.211,2.574c-0.779,0.848-1.599,1.683-2.46,2.506c-0.863,0.824-1.766,1.635-2.712,2.432
						l5.186-34.208c0.96-0.788,1.878-1.59,2.753-2.405c0.874-0.814,1.706-1.64,2.496-2.478c0.789-0.837,1.535-1.685,2.241-2.545
						C598.481,306.113,599.144,305.244,599.766,304.366"/>
					<path fill="#B8B8B8" d="M590.288,314.398l-5.186,34.208c-0.078,0.066-0.157,0.132-0.236,0.198
						c-0.079,0.066-0.158,0.132-0.238,0.197c-0.08,0.066-0.159,0.131-0.24,0.197s-0.161,0.131-0.241,0.196
						c-1.311,1.061-2.677,2.078-4.093,3.051c-1.419,0.975-2.889,1.906-4.405,2.792c-1.519,0.888-3.085,1.731-4.695,2.53
						c-1.612,0.8-3.267,1.554-4.961,2.264l4.869-34.332c1.724-0.702,3.408-1.448,5.048-2.239c1.637-0.79,3.23-1.624,4.774-2.502
						c1.542-0.877,3.036-1.798,4.478-2.762c1.439-0.963,2.827-1.969,4.158-3.018c0.082-0.065,0.164-0.129,0.245-0.194
						s0.162-0.13,0.243-0.195c0.081-0.065,0.161-0.13,0.241-0.195C590.128,314.528,590.208,314.463,590.288,314.398"/>
					<path fill="#B3B3B3" d="M570.86,325.698l-4.869,34.332c-1.31,0.548-2.643,1.069-3.998,1.564
						c-1.356,0.494-2.734,0.962-4.132,1.402c-1.399,0.44-2.818,0.853-4.254,1.239c-1.438,0.386-2.894,0.744-4.366,1.075
						l4.566-34.389c1.499-0.327,2.982-0.681,4.446-1.063c1.463-0.381,2.908-0.79,4.332-1.225c1.423-0.435,2.826-0.897,4.206-1.387
						C568.171,326.756,569.528,326.241,570.86,325.698"/>
					<path fill="#ADADAD" d="M553.808,330.92l-4.566,34.389c-0.947,0.213-1.901,0.414-2.862,0.604
						c-0.961,0.19-1.927,0.369-2.9,0.536c-0.973,0.167-1.951,0.323-2.935,0.467c-0.984,0.144-1.973,0.277-2.967,0.398l4.347-34.411
						c1.013-0.12,2.021-0.251,3.023-0.394c1.002-0.143,1.999-0.297,2.99-0.462c0.991-0.165,1.976-0.342,2.954-0.53
						C551.871,331.33,552.843,331.13,553.808,330.92"/>
					<path fill="#A8A8A8" d="M541.926,332.903l-4.347,34.411c-0.849,0.104-1.701,0.199-2.557,0.285
						c-0.856,0.087-1.714,0.165-2.576,0.235c-0.862,0.07-1.726,0.132-2.593,0.185c-0.867,0.053-1.736,0.098-2.608,0.134
						l4.149-34.421c0.888-0.036,1.775-0.08,2.658-0.132c0.884-0.053,1.765-0.113,2.643-0.182c0.878-0.069,1.753-0.147,2.625-0.232
						C540.192,333.099,541.061,333.005,541.926,332.903"/>
					<path fill="#A3A3A3" d="M531.394,333.733l-4.149,34.421c-0.8,0.033-1.603,0.06-2.406,0.079
						c-0.804,0.019-1.609,0.031-2.416,0.036c-0.807,0.005-1.615,0.003-2.424-0.007c-0.809-0.009-1.619-0.026-2.431-0.049
						l3.96-34.422c0.827,0.023,1.653,0.04,2.478,0.049c0.825,0.009,1.649,0.012,2.471,0.007s1.643-0.017,2.463-0.035
						C529.761,333.791,530.578,333.766,531.394,333.733"/>
					<path fill="#9E9E9E" d="M521.529,333.79l-3.96,34.422c-0.782-0.023-1.566-0.052-2.349-0.088
						c-0.784-0.036-1.568-0.078-2.353-0.128c-0.784-0.049-1.569-0.105-2.354-0.167c-0.785-0.062-1.57-0.131-2.355-0.207
						l3.775-34.417c0.8,0.075,1.601,0.143,2.401,0.205c0.8,0.062,1.601,0.117,2.401,0.166c0.8,0.049,1.6,0.091,2.399,0.126
						C519.933,333.738,520.731,333.768,521.529,333.79"/>
					<path fill="#999999" d="M511.933,333.206l-3.775,34.417c-0.783-0.075-1.566-0.157-2.349-0.246
						c-0.783-0.088-1.565-0.184-2.347-0.285c-0.782-0.102-1.563-0.21-2.343-0.324c-0.78-0.115-1.56-0.236-2.338-0.364l3.588-34.405
						c0.794,0.126,1.589,0.246,2.385,0.36c0.796,0.114,1.593,0.221,2.39,0.321c0.797,0.101,1.595,0.195,2.393,0.282
						C510.335,333.05,511.134,333.131,511.933,333.206"/>
					<path fill="#949494" d="M502.369,331.999l-3.588,34.405c-0.809-0.133-1.618-0.273-2.425-0.42
						c-0.807-0.147-1.612-0.301-2.416-0.462c-0.804-0.161-1.606-0.329-2.406-0.504c-0.8-0.175-1.599-0.357-2.395-0.546l3.395-34.386
						c0.812,0.187,1.627,0.367,2.443,0.541c0.816,0.173,1.635,0.34,2.455,0.499c0.82,0.159,1.642,0.312,2.465,0.457
						C500.719,331.729,501.543,331.867,502.369,331.999"/>
					<path fill="#8F8F8F" d="M492.533,330.086l-3.395,34.386c-0.864-0.205-1.725-0.419-2.584-0.64
						c-0.858-0.222-1.714-0.451-2.567-0.689c-0.852-0.238-1.702-0.484-2.547-0.738c-0.846-0.254-1.688-0.517-2.526-0.787
						l3.189-34.357c0.856,0.268,1.715,0.528,2.577,0.779c0.863,0.252,1.729,0.495,2.599,0.731c0.87,0.236,1.743,0.463,2.618,0.682
						C490.773,329.672,491.652,329.883,492.533,330.086"/>
					<path fill="#8A8A8A" d="M482.102,327.26l-3.189,34.357c-1.026-0.331-2.046-0.674-3.06-1.03
						c-1.014-0.355-2.021-0.723-3.022-1.102c-1-0.379-1.994-0.771-2.981-1.174c-0.986-0.403-1.965-0.819-2.936-1.246l2.944-34.309
						c0.991,0.423,1.99,0.834,2.995,1.233c1.007,0.399,2.021,0.787,3.041,1.162c1.021,0.376,2.049,0.739,3.084,1.091
						C480.014,326.592,481.055,326.932,482.102,327.26"/>
					<path fill="#858585" d="M469.859,322.754l-2.944,34.309c-1.259-0.554-2.506-1.129-3.738-1.724
						c-1.231-0.594-2.448-1.208-3.649-1.843c-1.2-0.634-2.385-1.287-3.553-1.961c-1.167-0.673-2.317-1.365-3.45-2.077l2.649-34.228
						c1.156,0.704,2.33,1.389,3.521,2.055c1.192,0.666,2.402,1.313,3.626,1.94c1.226,0.628,2.468,1.235,3.724,1.823
						C467.302,321.637,468.574,322.206,469.859,322.754"/>
				</g>
			</g>
			<g enable-background="new    ">
				<defs>
					<path id="SVGID_15_" enable-background="new    " d="M38.945,321.149l-5.159-33.942c0.376,2.476,1.015,4.929,1.921,7.343
						c0.91,2.424,2.091,4.807,3.548,7.132c1.463,2.335,3.203,4.61,5.228,6.808c2.032,2.206,4.35,4.334,6.957,6.365
						c7.894,6.146,17.668,10.799,28.577,13.919c10.968,3.138,23.022,4.71,35.385,4.705c12.361-0.006,24.963-1.589,37.021-4.736
						c11.992-3.13,23.381-7.79,33.41-13.941l2.422,34.246c-9.826,6.22-20.989,10.931-32.744,14.095
						c-11.82,3.182-24.175,4.782-36.3,4.789c-12.126,0.007-23.955-1.581-34.725-4.751c-10.713-3.153-20.321-7.854-28.092-14.067
						c-2.567-2.053-4.851-4.204-6.854-6.435c-1.996-2.223-3.715-4.524-5.16-6.885c-1.44-2.352-2.61-4.763-3.514-7.215
						C39.964,326.137,39.326,323.655,38.945,321.149z"/>
				</defs>
				<clipPath id="SVGID_16_">
					<use xlink:href="#SVGID_15_"  overflow="visible"/>
				</clipPath>
				<g clip-path="url(#SVGID_16_)" enable-background="new    ">
					<path fill="#B8B8B8" d="M185.833,314.802l2.422,34.246c-1.676,1.061-3.392,2.079-5.144,3.052
						c-1.755,0.975-3.545,1.907-5.368,2.793c-1.825,0.888-3.683,1.732-5.568,2.531c-1.888,0.8-3.804,1.555-5.744,2.265
						l-2.867-34.363c1.979-0.702,3.934-1.449,5.861-2.24c1.924-0.79,3.819-1.625,5.682-2.503c1.86-0.877,3.687-1.798,5.478-2.763
						C182.371,316.858,184.122,315.852,185.833,314.802"/>
					<path fill="#B3B3B3" d="M163.564,325.327l2.867,34.363c-1.499,0.548-3.013,1.07-4.539,1.564
						c-1.527,0.495-3.067,0.962-4.618,1.402c-1.552,0.44-3.114,0.854-4.685,1.239c-1.572,0.386-3.153,0.744-4.741,1.075
						l-3.242-34.42c1.619-0.327,3.232-0.682,4.836-1.063c1.603-0.382,3.196-0.79,4.78-1.226c1.582-0.435,3.153-0.898,4.711-1.387
						C160.489,326.385,162.034,325.869,163.564,325.327"/>
					<path fill="#ADADAD" d="M144.606,330.551l3.242,34.42c-1.022,0.213-2.046,0.414-3.073,0.604
						c-1.027,0.19-2.057,0.369-3.088,0.536c-1.032,0.167-2.065,0.323-3.099,0.467c-1.035,0.144-2.071,0.277-3.108,0.398
						l-3.489-34.442c1.058-0.12,2.114-0.251,3.17-0.394c1.055-0.143,2.109-0.297,3.161-0.462c1.052-0.165,2.102-0.342,3.149-0.53
						C142.519,330.96,143.564,330.761,144.606,330.551"/>
					<path fill="#A8A8A8" d="M131.991,332.534l3.489,34.442c-0.886,0.104-1.772,0.199-2.659,0.286
						c-0.887,0.087-1.774,0.165-2.66,0.235c-0.887,0.07-1.774,0.132-2.66,0.185c-0.887,0.053-1.773,0.098-2.658,0.134l-3.699-34.451
						c0.903-0.036,1.806-0.08,2.71-0.133c0.904-0.053,1.808-0.113,2.713-0.183c0.904-0.069,1.809-0.147,2.713-0.232
						C130.184,332.731,131.087,332.637,131.991,332.534"/>
					<path fill="#A3A3A3" d="M121.143,333.364l3.699,34.451c-0.813,0.033-1.626,0.06-2.437,0.079
						c-0.812,0.019-1.623,0.031-2.432,0.036c-0.81,0.005-1.618,0.003-2.426-0.007c-0.807-0.009-1.613-0.026-2.418-0.049
						l-3.889-34.453c0.82,0.023,1.642,0.04,2.465,0.049c0.823,0.009,1.648,0.012,2.473,0.007c0.826-0.005,1.652-0.017,2.48-0.035
						C119.486,333.423,120.314,333.397,121.143,333.364"/>
					<path fill="#9E9E9E" d="M111.24,333.422l3.889,34.453c-0.776-0.023-1.55-0.052-2.323-0.088
						c-0.773-0.036-1.544-0.078-2.313-0.128c-0.769-0.049-1.536-0.105-2.301-0.167c-0.765-0.062-1.528-0.131-2.288-0.207
						l-4.067-34.447c0.775,0.075,1.552,0.143,2.332,0.205c0.78,0.062,1.562,0.117,2.345,0.166c0.784,0.049,1.57,0.091,2.357,0.126
						C109.66,333.37,110.449,333.399,111.24,333.422"/>
					<path fill="#999999" d="M101.837,332.837l4.067,34.447c-0.759-0.075-1.515-0.157-2.269-0.246
						c-0.754-0.089-1.505-0.184-2.253-0.285c-0.748-0.102-1.494-0.21-2.236-0.324c-0.742-0.115-1.482-0.236-2.218-0.364
						l-4.238-34.435c0.75,0.127,1.503,0.247,2.259,0.36c0.756,0.114,1.516,0.221,2.278,0.321c0.763,0.101,1.528,0.195,2.296,0.282
						C100.293,332.682,101.064,332.763,101.837,332.837"/>
					<path fill="#949494" d="M92.691,331.63l4.238,34.435c-0.765-0.133-1.527-0.273-2.285-0.42
						c-0.758-0.147-1.512-0.301-2.262-0.462c-0.75-0.161-1.496-0.329-2.238-0.504c-0.742-0.175-1.479-0.357-2.212-0.546
						l-4.406-34.416c0.746,0.187,1.498,0.368,2.253,0.541c0.756,0.173,1.516,0.34,2.28,0.499c0.764,0.16,1.533,0.312,2.305,0.458
						C91.135,331.36,91.911,331.498,92.691,331.63"/>
					<path fill="#8F8F8F" d="M83.525,329.716l4.406,34.416c-0.795-0.205-1.585-0.419-2.369-0.64
						c-0.784-0.222-1.562-0.452-2.335-0.69c-0.772-0.238-1.539-0.484-2.299-0.739c-0.76-0.254-1.514-0.517-2.261-0.788
						l-4.575-34.387c0.761,0.268,1.528,0.528,2.302,0.78c0.774,0.252,1.554,0.496,2.341,0.731c0.787,0.236,1.579,0.463,2.378,0.683
						C81.911,329.302,82.716,329.513,83.525,329.716"/>
					<path fill="#8A8A8A" d="M74.092,326.889l4.575,34.387c-0.914-0.331-1.819-0.675-2.713-1.03
						c-0.894-0.355-1.777-0.723-2.65-1.103c-0.872-0.38-1.733-0.771-2.584-1.175c-0.849-0.403-1.688-0.819-2.514-1.247l-4.759-34.34
						c0.841,0.423,1.693,0.834,2.557,1.234c0.865,0.4,1.741,0.787,2.629,1.163c0.888,0.376,1.787,0.74,2.697,1.091
						C72.241,326.221,73.162,326.561,74.092,326.889"/>
					<path fill="#858585" d="M63.448,322.382l4.759,34.34c-1.072-0.555-2.124-1.129-3.154-1.724
						c-1.03-0.594-2.038-1.209-3.025-1.843c-0.985-0.634-1.949-1.288-2.888-1.961c-0.939-0.673-1.854-1.366-2.745-2.078
						c-2.567-2.053-4.851-4.204-6.854-6.435c-1.996-2.223-3.715-4.524-5.16-6.885c-1.44-2.352-2.61-4.763-3.514-7.215
						c-0.901-2.442-1.539-4.924-1.92-7.43l-5.159-33.942c0.376,2.476,1.015,4.929,1.921,7.343c0.91,2.424,2.091,4.807,3.548,7.132
						c1.463,2.335,3.203,4.61,5.228,6.808c2.032,2.206,4.35,4.334,6.957,6.365c0.905,0.705,1.835,1.39,2.789,2.055
						c0.955,0.666,1.934,1.313,2.936,1.94c1.003,0.628,2.028,1.236,3.075,1.824C61.288,321.264,62.358,321.833,63.448,322.382"/>
				</g>
			</g>
			<g>
				<path fill="#D2D2D2" d="M176.62,284.517l115.54-68.606l27.541,16.78l-133.868,82.111c-10.029,6.151-21.419,10.811-33.41,13.941
					c-12.059,3.147-24.66,4.731-37.021,4.736c-12.362,0.006-24.416-1.567-35.385-4.705c-10.909-3.121-20.683-7.773-28.577-13.919
					c-7.809-6.08-13.008-13.025-15.747-20.343c-2.704-7.223-3.008-14.798-1.075-22.27c1.907-7.37,5.99-14.642,12.099-21.393
					c6.032-6.666,14.051-12.838,23.934-18.122l132.679-70.938l24.702,15.05L113.02,240.155c-5.356,2.949-9.634,6.376-12.78,10.058
					c-3.169,3.708-5.194,7.677-6.015,11.677c-0.827,4.029-0.433,8.089,1.247,11.935c1.692,3.874,4.685,7.529,9.039,10.711
					c4.379,3.201,9.709,5.614,15.594,7.227c5.902,1.618,12.346,2.429,18.929,2.427c6.582-0.002,13.284-0.815,19.7-2.437
					C165.13,290.136,171.225,287.72,176.62,284.517z"/>
			</g>
		</g>
	</g>
</g>
</svg>
